# xmcd CD database file
#
# Track frame offsets:
#	150
#	26162
#	78695
#	109222
#	149050
#	172092
#	199465
#	233447
#	259635
#
# Disc length: 3944 seconds
#
# Revision: 0
# Processed by: cddbd v1.5.1PL0 Copyright (c) Steve Scherf et al.
# Submitted via: CDex 1.51
#
DISCID=840f6609
DTITLE=Thomas R Einarsson - Journey to Iceland
DYEAR=1900
DGENRE=Jazz
TTITLE0=Neurotic and Frenzied
TTITLE1=Lunar Beauty
TTITLE2=Paul Chambers
TTITLE3=Lucky Dog
TTITLE4=Journey to Iceland - For Europe is absent
TTITLE5=Journey to Iceland - Let jazz be bestowed on the huts
TTITLE6=Lazin
TTITLE7=Double Bass Blues
TTITLE8=Spring Rain
EXTD=
EXTT0=
EXTT1=
EXTT2=
EXTT3=
EXTT4=
EXTT5=
EXTT6=
EXTT7=
EXTT8=
PLAYORDER=
